# Blender 4.1.1
# www.blender.org
mtllib Motorblock.mtl
o Cube
v -1.559640 -1.000000 4.280000
v -1.000000 3.313657 4.280000
v -1.559640 -1.000000 -4.280000
v -1.000000 3.313657 -4.280000
v 0.000000 -1.000000 4.280000
v 0.000000 3.313657 4.280000
v 0.000000 -1.000000 -4.280000
v 0.000000 3.313657 -4.280000
v -3.162013 1.659662 4.280000
v -3.162013 1.659662 -4.280000
v -1.559640 0.350415 4.280000
v -1.559640 0.350415 -4.280000
v 1.559640 -1.000000 4.280000
v 1.000000 3.313657 4.280000
v 1.559640 -1.000000 -4.280000
v 1.000000 3.313657 -4.280000
v 3.162013 1.659662 4.280000
v 3.162013 1.659662 -4.280000
v 1.559640 0.350415 4.280000
v 1.559640 0.350415 -4.280000
vn -0.0000 -0.0000 -1.0000
vn -1.0000 -0.0000 -0.0000
vn -0.0000 -1.0000 -0.0000
vn -0.0000 1.0000 -0.0000
vn -0.6076 0.7942 -0.0000
vn -0.6327 -0.7744 -0.0000
vn -0.0000 -0.0000 1.0000
vn 1.0000 -0.0000 -0.0000
vn 0.6076 0.7942 -0.0000
vn 0.6327 -0.7744 -0.0000
vt 0.625000 0.250000
vt 0.125000 0.500000
vt 0.375000 0.500000
vt 0.125000 0.750000
vt 0.625000 0.000000
vt 0.375000 0.750000
vt 0.625000 0.500000
vt 0.875000 0.500000
vt 0.875000 0.750000
vt 0.625000 0.750000
s 0
f 10/1/1 4/1/1 12/1/1
f 3/2/1 12/1/1 7/3/1
f 3/2/2 1/4/2 11/5/2 12/1/2
f 3/2/3 7/3/3 5/6/3 1/4/3
f 8/7/4 4/8/4 2/9/4 6/10/4
f 2/5/5 4/1/5 10/1/5 9/5/5
f 9/5/6 10/1/6 12/1/6 11/5/6
f 9/5/7 11/5/7 2/5/7
f 11/5/7 1/4/7 5/6/7
f 8/7/1 7/3/1 12/1/1 4/1/1
f 5/6/7 6/10/7 2/5/7 11/5/7
f 18/1/1 20/1/1 16/1/1
f 15/2/1 7/3/1 20/1/1
f 15/2/8 20/1/8 19/5/8 13/4/8
f 15/2/3 13/4/3 5/6/3 7/3/3
f 8/7/4 6/10/4 14/9/4 16/8/4
f 14/5/9 17/5/9 18/1/9 16/1/9
f 17/5/10 19/5/10 20/1/10 18/1/10
f 17/5/7 14/5/7 19/5/7
f 19/5/7 5/6/7 13/4/7
f 8/7/1 16/1/1 20/1/1 7/3/1
f 5/6/7 19/5/7 14/5/7 6/10/7
